<mxfile host="app.diagrams.net" modified="2023-12-09T06:07:05.313Z" agent="Mozilla/5.0 (Windows NT 10.0; Win64; x64) AppleWebKit/537.36 (KHTML, like Gecko) Chrome/119.0.0.0 Safari/537.36" etag="Gcvjq_rfCuvWttTVNZOa" version="22.1.7" type="device">
  <diagram id="C5RBs43oDa-KdzZeNtuy" name="Page-1">
    <mxGraphModel dx="792" dy="1104" grid="1" gridSize="10" guides="1" tooltips="1" connect="1" arrows="1" fold="1" page="1" pageScale="1" pageWidth="827" pageHeight="1169" math="0" shadow="0">
      <root>
        <mxCell id="WIyWlLk6GJQsqaUBKTNV-0" />
        <mxCell id="WIyWlLk6GJQsqaUBKTNV-1" parent="WIyWlLk6GJQsqaUBKTNV-0" />
        <mxCell id="WIyWlLk6GJQsqaUBKTNV-3" value="게임 시작" style="rounded=1;whiteSpace=wrap;html=1;fontSize=12;glass=0;strokeWidth=1;shadow=0;" parent="WIyWlLk6GJQsqaUBKTNV-1" vertex="1">
          <mxGeometry x="354" y="50" width="120" height="40" as="geometry" />
        </mxCell>
        <mxCell id="q8Au1M5k3sXAakoXnZuL-5" style="edgeStyle=orthogonalEdgeStyle;rounded=0;orthogonalLoop=1;jettySize=auto;html=1;exitX=0.5;exitY=1;exitDx=0;exitDy=0;entryX=0.5;entryY=0;entryDx=0;entryDy=0;" edge="1" parent="WIyWlLk6GJQsqaUBKTNV-1" source="q8Au1M5k3sXAakoXnZuL-0" target="q8Au1M5k3sXAakoXnZuL-2">
          <mxGeometry relative="1" as="geometry" />
        </mxCell>
        <mxCell id="q8Au1M5k3sXAakoXnZuL-0" value="로고출력" style="rounded=1;whiteSpace=wrap;html=1;fontSize=12;glass=0;strokeWidth=1;shadow=0;" vertex="1" parent="WIyWlLk6GJQsqaUBKTNV-1">
          <mxGeometry x="354" y="130" width="120" height="40" as="geometry" />
        </mxCell>
        <mxCell id="q8Au1M5k3sXAakoXnZuL-2" value="게임 데이터에서&lt;br&gt;2개 아이템 추출" style="rounded=1;whiteSpace=wrap;html=1;fontSize=12;glass=0;strokeWidth=1;shadow=0;" vertex="1" parent="WIyWlLk6GJQsqaUBKTNV-1">
          <mxGeometry x="354" y="210" width="120" height="40" as="geometry" />
        </mxCell>
        <mxCell id="q8Au1M5k3sXAakoXnZuL-26" style="edgeStyle=orthogonalEdgeStyle;rounded=0;orthogonalLoop=1;jettySize=auto;html=1;exitX=0.5;exitY=1;exitDx=0;exitDy=0;entryX=1;entryY=0.5;entryDx=0;entryDy=0;" edge="1" parent="WIyWlLk6GJQsqaUBKTNV-1" source="q8Au1M5k3sXAakoXnZuL-3" target="q8Au1M5k3sXAakoXnZuL-20">
          <mxGeometry relative="1" as="geometry" />
        </mxCell>
        <mxCell id="q8Au1M5k3sXAakoXnZuL-3" value="A&amp;nbsp; item 출력&lt;br&gt;VS 로고 출력&lt;br&gt;B item 출력&lt;br&gt;사용자에게 A,B 선택값 받기" style="rounded=1;whiteSpace=wrap;html=1;fontSize=12;glass=0;strokeWidth=1;shadow=0;" vertex="1" parent="WIyWlLk6GJQsqaUBKTNV-1">
          <mxGeometry x="340" y="290" width="160" height="60" as="geometry" />
        </mxCell>
        <mxCell id="q8Au1M5k3sXAakoXnZuL-4" value="" style="endArrow=classic;html=1;rounded=0;exitX=0.5;exitY=1;exitDx=0;exitDy=0;entryX=0.5;entryY=0;entryDx=0;entryDy=0;" edge="1" parent="WIyWlLk6GJQsqaUBKTNV-1" source="WIyWlLk6GJQsqaUBKTNV-3" target="q8Au1M5k3sXAakoXnZuL-0">
          <mxGeometry width="50" height="50" relative="1" as="geometry">
            <mxPoint x="380" y="590" as="sourcePoint" />
            <mxPoint x="430" y="540" as="targetPoint" />
          </mxGeometry>
        </mxCell>
        <mxCell id="q8Au1M5k3sXAakoXnZuL-10" value="" style="endArrow=classic;html=1;rounded=0;exitX=0;exitY=0.5;exitDx=0;exitDy=0;entryX=0.5;entryY=0;entryDx=0;entryDy=0;" edge="1" parent="WIyWlLk6GJQsqaUBKTNV-1" source="q8Au1M5k3sXAakoXnZuL-3" target="q8Au1M5k3sXAakoXnZuL-20">
          <mxGeometry relative="1" as="geometry">
            <mxPoint x="360" y="560" as="sourcePoint" />
            <mxPoint x="260" y="320" as="targetPoint" />
            <Array as="points">
              <mxPoint x="265" y="320" />
            </Array>
          </mxGeometry>
        </mxCell>
        <mxCell id="q8Au1M5k3sXAakoXnZuL-11" value="정답" style="edgeLabel;resizable=0;html=1;align=center;verticalAlign=middle;" connectable="0" vertex="1" parent="q8Au1M5k3sXAakoXnZuL-10">
          <mxGeometry relative="1" as="geometry" />
        </mxCell>
        <mxCell id="q8Au1M5k3sXAakoXnZuL-12" value="" style="endArrow=classic;html=1;rounded=0;exitX=1;exitY=0.5;exitDx=0;exitDy=0;entryX=0.5;entryY=0;entryDx=0;entryDy=0;" edge="1" parent="WIyWlLk6GJQsqaUBKTNV-1" source="q8Au1M5k3sXAakoXnZuL-3" target="q8Au1M5k3sXAakoXnZuL-14">
          <mxGeometry relative="1" as="geometry">
            <mxPoint x="360" y="560" as="sourcePoint" />
            <mxPoint x="560" y="400" as="targetPoint" />
            <Array as="points">
              <mxPoint x="534" y="320" />
            </Array>
          </mxGeometry>
        </mxCell>
        <mxCell id="q8Au1M5k3sXAakoXnZuL-13" value="실패" style="edgeLabel;resizable=0;html=1;align=center;verticalAlign=middle;" connectable="0" vertex="1" parent="q8Au1M5k3sXAakoXnZuL-12">
          <mxGeometry relative="1" as="geometry" />
        </mxCell>
        <mxCell id="q8Au1M5k3sXAakoXnZuL-14" value="재도전 여부 확인" style="rounded=1;whiteSpace=wrap;html=1;fontSize=12;glass=0;strokeWidth=1;shadow=0;" vertex="1" parent="WIyWlLk6GJQsqaUBKTNV-1">
          <mxGeometry x="474" y="430" width="120" height="40" as="geometry" />
        </mxCell>
        <mxCell id="q8Au1M5k3sXAakoXnZuL-15" value="" style="endArrow=classic;html=1;rounded=0;exitX=1;exitY=0.5;exitDx=0;exitDy=0;entryX=1;entryY=0.5;entryDx=0;entryDy=0;" edge="1" parent="WIyWlLk6GJQsqaUBKTNV-1" source="q8Au1M5k3sXAakoXnZuL-14" target="WIyWlLk6GJQsqaUBKTNV-3">
          <mxGeometry relative="1" as="geometry">
            <mxPoint x="610" y="460" as="sourcePoint" />
            <mxPoint x="710" y="460" as="targetPoint" />
            <Array as="points">
              <mxPoint x="640" y="450" />
              <mxPoint x="640" y="70" />
            </Array>
          </mxGeometry>
        </mxCell>
        <mxCell id="q8Au1M5k3sXAakoXnZuL-16" value="Yes" style="edgeLabel;resizable=0;html=1;align=center;verticalAlign=middle;" connectable="0" vertex="1" parent="q8Au1M5k3sXAakoXnZuL-15">
          <mxGeometry relative="1" as="geometry" />
        </mxCell>
        <mxCell id="q8Au1M5k3sXAakoXnZuL-17" value="" style="endArrow=classic;html=1;rounded=0;exitX=0.5;exitY=1;exitDx=0;exitDy=0;entryX=0.5;entryY=0;entryDx=0;entryDy=0;" edge="1" parent="WIyWlLk6GJQsqaUBKTNV-1" source="q8Au1M5k3sXAakoXnZuL-14" target="q8Au1M5k3sXAakoXnZuL-19">
          <mxGeometry relative="1" as="geometry">
            <mxPoint x="360" y="560" as="sourcePoint" />
            <mxPoint x="534" y="520" as="targetPoint" />
          </mxGeometry>
        </mxCell>
        <mxCell id="q8Au1M5k3sXAakoXnZuL-18" value="No" style="edgeLabel;resizable=0;html=1;align=center;verticalAlign=middle;" connectable="0" vertex="1" parent="q8Au1M5k3sXAakoXnZuL-17">
          <mxGeometry relative="1" as="geometry" />
        </mxCell>
        <mxCell id="q8Au1M5k3sXAakoXnZuL-19" value="게임종료" style="rounded=1;whiteSpace=wrap;html=1;fontSize=12;glass=0;strokeWidth=1;shadow=0;" vertex="1" parent="WIyWlLk6GJQsqaUBKTNV-1">
          <mxGeometry x="474" y="545" width="120" height="40" as="geometry" />
        </mxCell>
        <mxCell id="q8Au1M5k3sXAakoXnZuL-20" value="게임 데이터에서&lt;br&gt;추가 랜덤 아이템 추출" style="rounded=1;whiteSpace=wrap;html=1;fontSize=12;glass=0;strokeWidth=1;shadow=0;" vertex="1" parent="WIyWlLk6GJQsqaUBKTNV-1">
          <mxGeometry x="200" y="380" width="130" height="60" as="geometry" />
        </mxCell>
        <mxCell id="q8Au1M5k3sXAakoXnZuL-21" value="게임 클리어" style="rounded=1;whiteSpace=wrap;html=1;fontSize=12;glass=0;strokeWidth=1;shadow=0;" vertex="1" parent="WIyWlLk6GJQsqaUBKTNV-1">
          <mxGeometry x="205" y="510" width="120" height="40" as="geometry" />
        </mxCell>
        <mxCell id="q8Au1M5k3sXAakoXnZuL-22" value="" style="endArrow=classic;html=1;rounded=0;exitX=0.5;exitY=1;exitDx=0;exitDy=0;entryX=0.5;entryY=0;entryDx=0;entryDy=0;" edge="1" parent="WIyWlLk6GJQsqaUBKTNV-1" source="q8Au1M5k3sXAakoXnZuL-20" target="q8Au1M5k3sXAakoXnZuL-21">
          <mxGeometry relative="1" as="geometry">
            <mxPoint x="360" y="560" as="sourcePoint" />
            <mxPoint x="460" y="560" as="targetPoint" />
          </mxGeometry>
        </mxCell>
        <mxCell id="q8Au1M5k3sXAakoXnZuL-23" value="데이터 없음" style="edgeLabel;resizable=0;html=1;align=center;verticalAlign=middle;" connectable="0" vertex="1" parent="q8Au1M5k3sXAakoXnZuL-22">
          <mxGeometry relative="1" as="geometry" />
        </mxCell>
        <mxCell id="q8Au1M5k3sXAakoXnZuL-25" style="edgeStyle=orthogonalEdgeStyle;rounded=0;orthogonalLoop=1;jettySize=auto;html=1;exitX=0.5;exitY=1;exitDx=0;exitDy=0;entryX=0.456;entryY=-0.017;entryDx=0;entryDy=0;entryPerimeter=0;" edge="1" parent="WIyWlLk6GJQsqaUBKTNV-1" source="q8Au1M5k3sXAakoXnZuL-2" target="q8Au1M5k3sXAakoXnZuL-3">
          <mxGeometry relative="1" as="geometry" />
        </mxCell>
      </root>
    </mxGraphModel>
  </diagram>
</mxfile>
